<svg width="30" height="32" viewBox="0 0 30 32" fill="none" xmlns="http://www.w3.org/2000/svg">
<path fill-rule="evenodd" clip-rule="evenodd" d="M14.6712 0C18.592 0 21.831 2.98749 22.2303 6.80838L22.3418 6.8097C24.5168 6.8097 27.1613 8.2542 28.0538 12.3057L29.2373 21.4662C29.6618 24.4227 29.1308 26.7942 27.6563 28.4952C26.1893 30.1872 23.8673 31.0827 20.9408 31.0827H8.4188C5.2043 31.0827 2.9648 30.2952 1.5713 28.6767C0.171796 27.0537 -0.296204 24.6192 0.180796 21.4422L1.3448 12.4032C2.1098 8.2587 4.9073 6.8097 7.0733 6.8097C7.26029 5.08541 8.03779 3.44505 9.27125 2.2155C10.6887 0.807 12.6432 0 14.6397 0H14.6712ZM22.3418 9.0597H7.0733C6.4118 9.0597 4.2008 9.3267 3.5663 12.7527L2.4083 21.7527C2.0318 24.2772 2.3228 26.1042 3.2753 27.2097C4.2158 28.3017 5.8988 28.8327 8.4188 28.8327H20.9408C22.5128 28.8327 24.6593 28.5192 25.9553 27.0222C26.9843 25.8357 27.3383 24.0687 27.0083 21.7692L25.8398 12.6912C25.3418 10.4547 24.0278 9.0597 22.3418 9.0597ZM19.046 13.2358C19.667 13.2358 20.2055 13.7398 20.2055 14.3608C20.2055 14.9818 19.736 15.4858 19.115 15.4858H19.046C18.425 15.4858 17.921 14.9818 17.921 14.3608C17.921 13.7398 18.425 13.2358 19.046 13.2358ZM10.3008 13.2358C10.9218 13.2358 11.4603 13.7398 11.4603 14.3608C11.4603 14.9818 10.9893 15.4858 10.3683 15.4858H10.3008C9.67985 15.4858 9.17585 14.9818 9.17585 14.3608C9.17585 13.7398 9.67985 13.2358 10.3008 13.2358ZM14.6667 2.25H14.6442C13.2327 2.25 11.8572 2.8185 10.8597 3.81C10.0472 4.6189 9.51577 5.68229 9.34387 6.809L19.9628 6.80942C19.5773 4.23207 17.3486 2.25 14.6667 2.25Z" fill="black"/>
</svg>
