<svg width="44" height="43" viewBox="0 0 44 43" fill="none" xmlns="http://www.w3.org/2000/svg">
<circle cx="22.2356" cy="21.3801" r="20.3801" stroke="white" stroke-width="2"/>
<path d="M22.6631 19.2469C21.2532 19.2469 20.1026 20.3975 20.1026 21.8074C20.1026 23.2173 21.2532 24.3679 22.6631 24.3679C24.0731 24.3679 25.2237 23.2173 25.2237 21.8074C25.2237 20.3975 24.0731 19.2469 22.6631 19.2469ZM30.3428 21.8074C30.3428 20.7471 30.3524 19.6964 30.2928 18.638C30.2333 17.4086 29.9528 16.3176 29.0539 15.4186C28.153 14.5177 27.0639 14.2392 25.8345 14.1797C24.7742 14.1201 23.7235 14.1297 22.6651 14.1297C21.6048 14.1297 20.554 14.1201 19.4956 14.1797C18.2663 14.2392 17.1752 14.5197 16.2763 15.4186C15.3754 16.3195 15.0969 17.4086 15.0373 18.638C14.9778 19.6983 14.9874 20.749 14.9874 21.8074C14.9874 22.8658 14.9778 23.9185 15.0373 24.9769C15.0969 26.2062 15.3773 27.2973 16.2763 28.1962C17.1772 29.0971 18.2663 29.3756 19.4956 29.4352C20.556 29.4947 21.6067 29.4851 22.6651 29.4851C23.7254 29.4851 24.7761 29.4947 25.8345 29.4352C27.0639 29.3756 28.1549 29.0952 29.0539 28.1962C29.9548 27.2953 30.2333 26.2062 30.2928 24.9769C30.3543 23.9185 30.3428 22.8677 30.3428 21.8074ZM22.6631 25.7471C20.483 25.7471 18.7235 23.9876 18.7235 21.8074C18.7235 19.6272 20.483 17.8677 22.6631 17.8677C24.8433 17.8677 26.6028 19.6272 26.6028 21.8074C26.6028 23.9876 24.8433 25.7471 22.6631 25.7471ZM26.7642 18.6265C26.2552 18.6265 25.8441 18.2154 25.8441 17.7064C25.8441 17.1973 26.2552 16.7863 26.7642 16.7863C27.2732 16.7863 27.6843 17.1973 27.6843 17.7064C27.6844 17.8272 27.6608 17.947 27.6146 18.0587C27.5684 18.1704 27.5006 18.2719 27.4151 18.3573C27.3297 18.4428 27.2282 18.5106 27.1165 18.5567C27.0048 18.6029 26.8851 18.6266 26.7642 18.6265Z" fill="white"/>
</svg>
