<svg width="43" height="43" viewBox="0 0 43 43" fill="none" xmlns="http://www.w3.org/2000/svg">
<circle cx="21.3801" cy="21.3801" r="20.3801" stroke="white" stroke-width="2"/>
<g clip-path="url(#clip0_1_293)">
<path d="M17.8567 18.9845V28.2218H14.7193V18.9845H17.8567ZM18.0562 16.1327L18.0573 16.1885C18.0573 16.6156 17.8724 16.9998 17.577 17.2689L17.5758 17.2695C17.4018 17.4256 17.1979 17.5462 16.976 17.6245C16.7541 17.7028 16.5186 17.7372 16.2831 17.7256H16.2871H16.2679C16.0378 17.7363 15.8079 17.7014 15.5918 17.6229C15.3758 17.5445 15.1781 17.4241 15.0107 17.2689L15.0112 17.2695C14.8557 17.1224 14.7333 16.9451 14.6517 16.749C14.57 16.5528 14.5311 16.3421 14.5373 16.1304V16.1327L14.5367 16.0933C14.5367 15.6589 14.7251 15.2678 15.0258 14.9935L15.0269 14.993C15.3762 14.6811 15.8374 14.5179 16.3092 14.5391H16.3057C16.5369 14.5281 16.7681 14.5625 16.9855 14.6403C17.2029 14.7181 17.4023 14.8379 17.5718 14.9924L17.5706 14.9913C17.7244 15.1362 17.8466 15.3101 17.9301 15.5025C18.0135 15.6949 18.0564 15.9019 18.0562 16.111V16.1349V16.1338V16.1327ZM29.1415 22.9287V28.2218H26.014V23.2816C26.0457 22.7395 25.9088 22.2007 25.6214 21.7365L25.6284 21.7485C25.4931 21.5617 25.3108 21.4125 25.0993 21.3154C24.8877 21.2183 24.654 21.1766 24.4211 21.1943H24.4258C24.0618 21.1816 23.7051 21.2964 23.4197 21.5182L23.4232 21.5159C23.1597 21.7241 22.9534 21.9936 22.823 22.2998L22.8184 22.3129C22.7388 22.558 22.7035 22.8148 22.7143 23.0718V23.0678V28.223H19.5868C19.5996 25.7436 19.606 23.7333 19.606 22.1921C19.606 20.6508 19.6029 19.7312 19.5967 19.4332L19.5874 18.9856H22.7149V20.3277H22.6957C22.8201 20.131 22.9487 19.9606 23.09 19.8009L23.0853 19.8061C23.2487 19.6299 23.4244 19.4708 23.6134 19.3283L23.6227 19.3214C23.8647 19.1394 24.1392 19.0033 24.4322 18.9201L24.4496 18.9161C24.7891 18.819 25.141 18.7702 25.4946 18.7713H25.5406H25.5383C26.0257 18.7511 26.5119 18.8351 26.963 19.0173C27.4142 19.1995 27.8195 19.4756 28.1511 19.8266L28.1528 19.8289C28.8127 20.5343 29.1426 21.5674 29.1426 22.9281L29.1415 22.9287Z" fill="white"/>
</g>
<defs>
<clipPath id="clip0_1_293">
<rect width="14.5385" height="13.6833" fill="white" transform="translate(14.5385 14.5386)"/>
</clipPath>
</defs>
</svg>
