<svg width="36" height="36" viewBox="0 0 36 36" fill="none" xmlns="http://www.w3.org/2000/svg">
<path fill-rule="evenodd" clip-rule="evenodd" d="M17.7668 32.493C12.2291 32.493 7.5 31.6312 7.5 28.1801C7.5 24.7289 12.1991 21.543 17.7668 21.543C23.3045 21.543 28.0336 24.698 28.0336 28.1492C28.0336 31.5989 23.3345 32.493 17.7668 32.493Z" stroke="black" stroke-width="2.3" stroke-linecap="round" stroke-linejoin="round"/>
<path fill-rule="evenodd" clip-rule="evenodd" d="M17.756 16.7606C21.3901 16.7606 24.3355 13.8151 24.3355 10.181C24.3355 6.54692 21.3901 3.6001 17.756 3.6001C14.1219 3.6001 11.175 6.54692 11.175 10.181C11.1628 13.8028 14.0878 16.7483 17.7096 16.7606C17.726 16.7606 17.741 16.7606 17.756 16.7606Z" stroke="black" stroke-width="2.3" stroke-linecap="round" stroke-linejoin="round"/>
</svg>
