<svg width="44" height="43" viewBox="0 0 44 43" fill="none" xmlns="http://www.w3.org/2000/svg">
<circle cx="22.2356" cy="21.3801" r="20.3801" stroke="white" stroke-width="2"/>
<g clip-path="url(#clip0_1_297)">
<path d="M29.7034 16.8497C29.1678 17.087 28.5925 17.2473 27.9876 17.3198C28.6117 16.9464 29.0786 16.3587 29.3012 15.6663C28.7149 16.0146 28.0732 16.2597 27.404 16.3911C26.9539 15.9106 26.3579 15.5921 25.7083 15.4851C25.0587 15.3781 24.392 15.4885 23.8116 15.7992C23.2312 16.11 22.7697 16.6036 22.4986 17.2035C22.2275 17.8035 22.1621 18.4761 22.3125 19.117C21.1244 19.0574 19.9622 18.7486 18.9011 18.2107C17.8401 17.6728 16.9041 16.9178 16.1537 15.9947C15.8972 16.4373 15.7497 16.9504 15.7497 17.4969C15.7494 17.9888 15.8705 18.4732 16.1024 18.9071C16.3342 19.341 16.6695 19.711 17.0787 19.9842C16.6042 19.9691 16.1402 19.8409 15.7253 19.6103V19.6488C15.7252 20.3387 15.9639 21.0075 16.4008 21.5415C16.8377 22.0756 17.4459 22.442 18.1222 22.5787C17.6821 22.6978 17.2206 22.7153 16.7727 22.63C16.9635 23.2237 17.3352 23.7428 17.8357 24.1148C18.3363 24.4867 18.9406 24.6929 19.5641 24.7043C18.5057 25.5352 17.1985 25.9859 15.8529 25.9839C15.6146 25.984 15.3764 25.97 15.1397 25.9422C16.5055 26.8204 18.0955 27.2865 19.7193 27.2847C25.2161 27.2847 28.2211 22.732 28.2211 18.7835C28.2211 18.6552 28.2179 18.5257 28.2121 18.3974C28.7966 17.9747 29.3012 17.4512 29.7021 16.8516L29.7034 16.8497Z" fill="white"/>
</g>
<defs>
<clipPath id="clip0_1_297">
<rect width="15.3937" height="15.3937" fill="white" transform="translate(14.5387 13.6831)"/>
</clipPath>
</defs>
</svg>
